<svg class="svg-icon" style="width: 1.001953125em; height: 1em;vertical-align: middle;fill: currentColor;overflow: hidden;" viewBox="0 0 1026 1024" version="1.1" xmlns="http://www.w3.org/2000/svg"><path d="M512.512 446.208c106.25024 0 192.384-85.61664 192.384-191.232S618.76224 63.744 512.512 63.744 320.128 149.36064 320.128 254.976 406.26176 446.208 512.512 446.208z m0 63.744C370.844672 509.952 256 395.795456 256 254.976S370.844672 0 512.512 0C654.179328 0 769.024 114.156544 769.024 254.976S654.179328 509.952 512.512 509.952zM2.048 896.439296C2.048 705.09568 258.048 577.536 514.048 577.536s512 127.560704 512 318.903296V1024H2.048V896.439296z m64 62.198784v1.581056h896V896.44032c0-136.296448-204.402688-255.122432-448-255.122432S66.048 760.142848 66.048 896.439296v62.198784z"  /></svg>