<?xml version="1.0" encoding="utf-8"?>
<!-- Svg Vector Icons : http://www.onlinewebfonts.com/icon -->
<!DOCTYPE svg PUBLIC "-//W3C//DTD SVG 1.1//EN" "http://www.w3.org/Graphics/SVG/1.1/DTD/svg11.dtd">
<svg version="1.1" xmlns="http://www.w3.org/2000/svg" xmlns:xlink="http://www.w3.org/1999/xlink" x="0px" y="0px" viewBox="0 0 256 256" enable-background="new 0 0 256 256" xml:space="preserve">
<metadata> Svg Vector Icons : http://www.onlinewebfonts.com/icon </metadata>
<g><g><path fill="#000000" d="M244.5,108.8c1.5-2.9,1.5-7.4,0-10.3l-10.3-10.3c-1.5-1.5-2.9-1.5-5.9-1.5c-1.5,0-4.4,0-5.9,1.5l-79.6,78.2v5.9V187h23.6L244.5,108.8z"/><path fill="#000000" d="M54.3,54.2h147.5V69H54.3V54.2L54.3,54.2z"/><path fill="#000000" d="M54.3,98.5h137.2l10.3-10.3v-4.4H54.3V98.5z"/><path fill="#000000" d="M54.3,172.2H128V187H54.3V172.2L54.3,172.2z"/><path fill="#000000" d="M54.3,128h107.7l14.7-14.8H54.3V128z"/><path fill="#000000" d="M231.2,142.7v59c0,16.2-13.3,29.5-29.5,29.5H54.3c-16.2,0-29.5-13.3-29.5-29.5V54.2C24.8,38,38,24.7,54.3,24.7h147.5c16.2,0,29.5,13.3,29.5,29.5v17.7c4.4,0,8.9,2.9,13.3,5.9l1.5,1.5v-25c0-25.1-19.2-44.3-44.2-44.3H54.3C29.2,10,10,29.2,10,54.3v147.5c0,25.1,19.2,44.2,44.3,44.2h147.5c25.1,0,44.2-19.2,44.2-44.2V128L231.2,142.7z"/><path fill="#000000" d="M54.3,157.5h78.2l1.5-1.5l13.3-13.3H54.3V157.5z"/></g></g>
</svg>
