<svg class="svg-icon" style="width: 1em; height: 1em;vertical-align: middle;fill: currentColor;overflow: hidden;" viewBox="0 0 1024 1024" version="1.1" xmlns="http://www.w3.org/2000/svg"><path d="M128.32 266.666667A170.666667 170.666667 0 0 1 298.666667 106.666667h448a170.666667 170.666667 0 0 1 170.666666 170.666666v469.333334a170.666667 170.666667 0 0 1-170.666666 170.666666H298.666667a170.666667 170.666667 0 0 1-170.346667-160H106.666667a32 32 0 0 1 0-64h21.333333v-149.333333H106.666667a32 32 0 0 1 0-64h21.333333v-149.333333H106.666667a32 32 0 0 1 0-64h21.653333z m64.213333 0H213.333333a32 32 0 0 1 0 64H192v149.333333h21.333333a32 32 0 0 1 0 64H192v149.333333h21.333333a32 32 0 0 1 0 64h-20.8A106.666667 106.666667 0 0 0 298.666667 853.333333h448a106.666667 106.666667 0 0 0 106.666666-106.666666V277.333333a106.666667 106.666667 0 0 0-106.666666-106.666666H298.666667a106.666667 106.666667 0 0 0-106.133334 96zM632.533333 516.949333C688.170667 548.970667 725.333333 607.104 725.333333 673.536V695.466667a51.2 51.2 0 0 1-51.2 51.2H392.533333a51.2 51.2 0 0 1-51.2-51.2v-21.952c0-66.410667 37.162667-124.544 92.8-156.586667a149.333333 149.333333 0 1 1 198.442667 0zM533.333333 490.666667a85.333333 85.333333 0 1 0 0-170.666667 85.333333 85.333333 0 0 0 0 170.666667z m-128 192h256v-9.152C661.333333 608.597333 604.714667 554.666667 533.333333 554.666667s-128 53.930667-128 118.848V682.666667z" fill="#000000" /></svg>