<svg class="svg-icon" style="width: 1.0146484375em; height: 1em;vertical-align: middle;fill: currentColor;overflow: hidden;" viewBox="0 0 1039 1024" version="1.1" xmlns="http://www.w3.org/2000/svg"><path d="M980.228077 369.656061l0 174.437891 35.612079 36.736693-74.264401 79.721693-75.223239-77.347622 51.523467-48.27447L917.875984 397.188114c-218.505549 92.883457-288.522206 121.747855-337.00543 144.281057-48.441269 22.534226-83.346243 22.451338-131.370003 3.749394-48.065715-18.659989-276.859585-104.754832-390.443503-160.77573-75.806523-37.403888-80.679507-61.144592 1.291412-92.883457 107.003036-41.901319 283.856953-109.0036 377.573381-145.615449 55.522548-23.157419 84.845387-35.777855 135.785569-9.413394 90.925872 38.736233 298.768571 119.125121 402.107147 163.108868C1065.739637 340.124468 1005.261217 353.412099 980.228077 369.656061L980.228077 369.656061 980.228077 369.656061zM591.408561 610.529037c52.855812-22.449291 124.07997-59.645448 201.76119-93.924159l0 275.443329c-0.001023 0-100.465133 110.169145-277.06834 110.169145-190.18248 0-292.937772-110.169145-292.937772-110.169145L223.163639 534.931269c59.979046 25.198915 127.288035 46.859237 208.759581 75.597769C482.155275 628.938316 545.882692 635.311467 591.408561 610.529037L591.408561 610.529037 591.408561 610.529037z"  /></svg>