<?xml version="1.0" encoding="utf-8"?>
<!-- Svg Vector Icons : http://www.onlinewebfonts.com/icon -->
<!DOCTYPE svg PUBLIC "-//W3C//DTD SVG 1.1//EN" "http://www.w3.org/Graphics/SVG/1.1/DTD/svg11.dtd">
<svg version="1.1" xmlns="http://www.w3.org/2000/svg" xmlns:xlink="http://www.w3.org/1999/xlink" x="0px" y="0px" viewBox="0 0 256 256" enable-background="new 0 0 256 256" xml:space="preserve">
<metadata> Svg Vector Icons : http://www.onlinewebfonts.com/icon </metadata>
<g><g><path fill="#000000" d="M226.8,57.8h-44.6V38.7c0-10.6-8.6-19.1-19.1-19.1H86.5c-10.6,0-19.1,8.6-19.1,19.1v19.1H29.1C18.6,57.8,10,66.4,10,77v140.3c0,10.6,8.6,19.1,19.1,19.1h197.7c10.6,0,19.1-8.6,19.1-19.1V77C246,66.4,237.4,57.8,226.8,57.8L226.8,57.8z M233.2,210.9c0,7-5.7,12.8-12.8,12.8h-185c-7,0-12.8-5.7-12.8-12.8v-63.8h73.5v8.5c0,4.2,3.4,7.6,7.6,7.6h48.2c4.2,0,7.6-3.4,7.6-7.6v-8.5h73.5V210.9L233.2,210.9z M104.4,155.1v-29.3h47.2v29.3H104.4z M233.2,134.4h-73.5v-9.1c0-4.2-3.4-7.6-7.6-7.6h-48.2c-4.2,0-7.6,3.4-7.6,7.6v9.1H22.8v-51c0-7,5.7-12.8,12.8-12.8h44.6V45.1c0-7,5.7-12.8,12.8-12.8h63.8c7,0,12.8,5.7,12.8,12.8v12.8h-0.1v12.8h51.1c7,0,12.8,5.7,12.8,12.8L233.2,134.4L233.2,134.4z"/></g></g>
</svg>