<svg class="svg-icon" style="width: 1em; height: 1em;vertical-align: middle;fill: currentColor;overflow: hidden;" viewBox="0 0 1024 1024" version="1.1" xmlns="http://www.w3.org/2000/svg"><path d="M789.094 649.387c-0.137 1.946 0.819-1.843 0 0v0 0 0zM633.89 649.387c-0.853-1.98-0.034 2.492 0 0v0 0 0zM789.094 287.607c0.239-23.586-16.009-39.185-25.975-51.712-9.762-12.288-34.714-20.753-53.043-20.446-16.179 0.239-40.311 8.499-50.381 20.446-15.667 18.807-25.634 44.134-25.873 51.712-0.307 10.547 0 361.779 0 361.779 8.397 19.285 67.584 118.511 67.891 119.398 1.843 4.437 5.495 7.27 9.523 7.27 2.901 0.102 5.7-1.297 7.714-3.755 0.887-1.126 1.434-2.15 2.116-3.482 0.444-0.956 60.996-104.585 67.891-119.433 0.444-15.258 0.922-337.954 0.137-361.779v0 0zM719.633 608.768c-1.98 10.411-4.642 39.424-8.021 58.061-3.311-19.831-6.042-46.899-7.953-58.061 0.341-29.116-0.102-263.168 0-270.507-0.068-6.417 0-2.697 0-19.319 3.243 0 5.086 0.068 7.953 0 3.516-0.137 6.042 0 8.021 0 0.034 8.294 0.034 8.294 0 19.319-0.102 9.626 0.034 134.758 0 270.507v0 0zM737.417 649.387z"  /><path d="M913.92 990.174h-803.84c-42.667 0-77.38-34.748-77.38-77.38v-803.874c0-42.667 34.714-77.38 77.38-77.38h803.874c42.667 0 77.414 34.714 77.414 77.38v803.874c-0.034 42.633-34.782 77.38-77.449 77.38zM118.682 904.192h786.671v-786.671h-786.671v786.671z"  /><path d="M484.284 278.903h-258.389c-23.757 0-42.974-19.251-42.974-42.974 0-23.757 19.217-42.974 42.974-42.974h258.389c23.723 0 42.94 19.217 42.94 42.974 0 23.723-19.217 42.974-42.94 42.974z"  /><path d="M484.284 455.919h-258.389c-23.757 0-42.974-19.251-42.974-43.008 0-23.723 19.217-42.974 42.974-42.974h258.389c23.723 0 42.94 19.251 42.94 42.974 0 23.757-19.217 43.008-42.94 43.008z"  /><path d="M484.284 620.442h-258.389c-23.757 0-42.974-19.217-42.974-43.008 0-23.723 19.217-42.974 42.974-42.974h258.389c23.723 0 42.94 19.217 42.94 42.974s-19.217 43.008-42.94 43.008z"  /><path d="M484.284 797.457h-258.389c-23.757 0-42.974-19.217-42.974-42.974s19.217-43.008 42.974-43.008h258.389c23.723 0 42.94 19.217 42.94 43.008 0 23.757-19.217 42.974-42.94 42.974z"  /></svg>