<svg class="svg-icon" style="width: 1.0009765625em;height: 1em;vertical-align: middle;fill: currentColor;overflow: hidden;" viewBox="0 0 1025 1024" version="1.1" xmlns="http://www.w3.org/2000/svg"><path d="M254.037315 745.648h267.208c11.52 19.344 24.616 37.304 39.44 53.536h-306.64v-53.536z m0-84.688h231.312a358.4 358.4 0 0 1-10.112-53.504h-221.2v53.504z m0-138.16H475.941315c2.304-18.288 5.712-36.256 10.72-53.496H254.021315v53.496h0.024z m431.304 358.72v46.8c0 22.384-16.76 40.6-37.336 40.6h-560.56c-20.608 0-37.304-18.216-37.304-40.6V250.08l185.76-167.68v178H138.101315v53.504h147.12V53.504h362.784c20.608 0 37.336 18.216 37.336 40.528v160.072c15.896-5.4 32.424-9.024 49.36-11.56v-148.48C734.725315 42.24 695.813315 0 648.037315 0H250.021315L0.821315 224.944v703.336c0 51.84 38.872 94.072 86.656 94.072h560.56c47.792 0 86.696-42.16 86.696-94.072v-35.28c-16.936-2.496-33.464-6.12-49.36-11.48h-0.032zM187.053315 469.336h-63.68v53.504h63.68v-53.504z m-63.648 329.84h63.68v-53.528h-63.68v53.536z m63.648-191.68h-63.68v53.496h63.68v-53.504z m717.744-120.336l-39.168-32.56-99.576 140.904-89.52-74.44-30.096 42.488 128.728 107.04 129.632-183.432zM1024.821315 567.824c0-149.056-111.76-270.256-249.176-270.256-137.344 0-249.08 121.24-249.08 270.256 0 149.024 111.76 270.264 249.08 270.264 137.376 0 249.144-121.2 249.144-270.264H1024.821315z m-49.36 0c0 119.464-89.624 216.8-199.848 216.8-110.16 0-199.896-97.264-199.896-216.8 0-119.528 89.56-216.792 199.896-216.792 110.224 0 199.856 97.264 199.856 216.8z"  /></svg>